<svg xmlns="http://www.w3.org/2000/svg" viewBox="0 0 512 512">
  <rect width="512" height="512" rx="96" fill="#fff7ee"/>
  <circle cx="384" cy="132" r="58" fill="#f2a34b"/>
  <path d="M52 342c58-61 113-91 166-91 65 0 87 51 141 51 36 0 66-23 101-58v216H52z" fill="#2f7f87"/>
  <path d="M52 384c82-39 139-56 171-51 40 6 66 37 112 40 38 3 78-13 125-48v135H52z" fill="#4e7d4f"/>
  <path d="M153 174c-17-25-14-57 7-73 23-17 58-8 78 20 21-28 56-37 78-20 22 16 25 48 8 73-19 28-53 50-86 74-33-24-67-46-85-74z" fill="#e86f5b"/>
</svg>
