<svg xmlns="http://www.w3.org/2000/svg" viewBox="0 0 920 560">
  <defs>
    <linearGradient id="dusk" x1="0" x2="0" y1="0" y2="1">
      <stop offset="0" stop-color="#dcecf7"/>
      <stop offset=".6" stop-color="#f7efe4"/>
      <stop offset="1" stop-color="#edf7f4"/>
    </linearGradient>
  </defs>
  <rect width="920" height="560" fill="url(#dusk)"/>
  <circle cx="742" cy="116" r="58" fill="#f7d28a"/>
  <path d="M0 306c118-30 218-33 300-7 112 36 210 22 294-42 90-68 199-69 326-3v306H0z" fill="#b8d2da"/>
  <path d="M0 384c141-25 258-24 351 3 117 34 238 22 363-36 70-33 139-41 206-25v234H0z" fill="#6f995e" opacity=".55"/>
  <path d="M182 278h238v178H182z" fill="#fffaf4"/>
  <path d="M218 320h150M218 358h114M218 396h132" stroke="#8b9ca7" stroke-width="12" stroke-linecap="round"/>
  <path d="M520 300c42-28 91-27 147 2 34 18 68 20 101 8v118H520z" fill="#2f7f87"/>
  <path d="M552 350c52 18 107 18 166 0" stroke="#bce4dc" stroke-width="10" stroke-linecap="round"/>
</svg>
